/* XPM */
static char *result[] = {
/* columns rows colors chars-per-pixel */
"32 32 3 1 ",
"  c black",
". c white",
"X c None",
/* pixels */
"XXXXXXXXXXXXXXXXXXXXXXXXXXXXXXXX",
"XXXXXXXXXXXXXXXXXXXXXXXXXXXXXXXX",
"XXXXXXXXXXXXXXXXXXXXXXXXXXXXXXXX",
"XXXXXXXXXXXXXXXXXXXXXXXXXXXXXXXX",
"XXXXXXXXXX............XXXXXXXXXX",
"XXXXXXXXXX............XXXXXXXXXX",
"XXXXXXXXXX............XXXXXXXXXX",
"XXXXXXX.........   ......XXXXXXX",
"XXXXXXX.........   ......XXXXXXX",
"XXXXXXX.........   ......XXXXXXX",
"XXXXXXX.........      ...XXXXXXX",
"XXXXXXX.........      ...XXXXXXX",
"XXXXXXX.........      ...XXXXXXX",
"XXXXXXX............   ...XXXXXXX",
"XXXXXXX............   ...XXXXXXX",
"XXXXXXX............   ...XXXXXXX",
"XXXXXXX............   ...XXXXXXX",
"XXXXXXX............   ...XXXXXXX",
"XXXXXXX............   ...XXXXXXX",
"XXXXXXX.........      ...XXXXXXX",
"XXXXXXX.........      ...XXXXXXX",
"XXXXXXX.........      ...XXXXXXX",
"XXXXXXX.........   ......XXXXXXX",
"XXXXXXX.........   ......XXXXXXX",
"XXXXXXX.........   ......XXXXXXX",
"XXXXXXXXXX............XXXXXXXXXX",
"XXXXXXXXXX............XXXXXXXXXX",
"XXXXXXXXXX............XXXXXXXXXX",
"XXXXXXXXXXXXXXXXXXXXXXXXXXXXXXXX",
"XXXXXXXXXXXXXXXXXXXXXXXXXXXXXXXX",
"XXXXXXXXXXXXXXXXXXXXXXXXXXXXXXXX",
"XXXXXXXXXXXXXXXXXXXXXXXXXXXXXXXX"
};
