/* XPM */
static char *result[] = {
/* columns rows colors chars-per-pixel */
"32 32 3 1 ",
"  c black",
". c white",
"X c None",
/* pixels */
"XXXXXXXXXXXX.........XXXXXXXXXXX",
"XXXXXXXXXXXX.........XXXXXXXXXXX",
"XXXXXXXXXXXX.........XXXXXXXXXXX",
"XXXXXXXX....         ...XXXXXXXX",
"XXXXXXXX....         ...XXXXXXXX",
"XXXXXXXX....         ...XXXXXXXX",
"XXXXX...                ...XXXXX",
"XXXXX...                ...XXXXX",
"XXXXX...                ...XXXXX",
"XXXXX...                ...XXXXX",
"XXXXX...       ...      ...XXXXX",
"XXXXX...       ...      ...XXXXX",
"XXXXX...       ...      ...XXXXX",
"XXXXX...    .........   ...XXXXX",
"XXXXX...    .........   ...XXXXX",
"XXXXX...    .........   ...XXXXX",
"XXXXX...       ...      ...XXXXX",
"XXXXX...       ...      ...XXXXX",
"XXXXX...       ...      ...XXXXX",
"XXXXX...       ...      ...XXXXX",
"XXXXX...       ...      ...XXXXX",
"XXXXX...       ...      ...XXXXX",
"XXXXX...                ...XXXXX",
"XXXXX...                ...XXXXX",
"XXXXX...                ...XXXXX",
"XXXXX...                ...XXXXX",
"XXXXX...       ...      ...XXXXX",
"XXXXX...       ...      ...XXXXX",
"XXXXX...       ...      ...XXXXX",
"XXXXX...                ...XXXXX",
"XXXXX...                ...XXXXX",
"XXXXX...                ...XXXXX"
};
