/* XPM */
static char *result[] = {
/* columns rows colors chars-per-pixel */
"50 50 3 1 ",
"  c black",
". c white",
"X c None",
/* pixels */
"XXXXXXXXXXXXXXXXXXXXXXXXXXXXXXXXXXXXXXXXXXXXXXXXXX",
"XXXXXXXXXXXXXXXXXXXXXXXXXXXXXXXXXXXXXXXXXXXXXXXXXX",
"XXXXXXXXXXXXXXXXXXXXXXXXXXXXXXXXXXXXXXXXXXXXXXXXXX",
"XXXXXXXXXXXXXXXXXXXXXXXXXXXXXXXXXXXXXXXXXXXXXXXXXX",
"XXXXXXXXXXXXXXXXXXX.............XXXXXXXXXXXXXXXXXX",
"XXXXXXXXXXXXXXXXXXX.............XXXXXXXXXXXXXXXXXX",
"XXXXXXXXXXXXXXXXXXX.............XXXXXXXXXXXXXXXXXX",
"XXXXXXXXXXXXXXXXXXX.............XXXXXXXXXXXXXXXXXX",
"XXXXXXXXXXXXX......             .....XXXXXXXXXXXXX",
"XXXXXXXXXXXXX......             .....XXXXXXXXXXXXX",
"XXXXXXXXXXXXX......             .....XXXXXXXXXXXXX",
"XXXXXXXXXXXXX......             .....XXXXXXXXXXXXX",
"XXXXXXXXX....                        ....XXXXXXXXX",
"XXXXXXXXX....                        ....XXXXXXXXX",
"XXXXXXXXX....                        ....XXXXXXXXX",
"XXXXXXXXX....                        ....XXXXXXXXX",
"XXXXXXXXX....                        ....XXXXXXXXX",
"XXXXXXXXX....                        ....XXXXXXXXX",
"XXXXXXXXX....           ....         ....XXXXXXXXX",
"XXXXXXXXX....           ....         ....XXXXXXXXX",
"XXXXXXXXX....           ....         ....XXXXXXXXX",
"XXXXXXXXX....           ....         ....XXXXXXXXX",
"XXXXXXXXX....      .............     ....XXXXXXXXX",
"XXXXXXXXX....      .............     ....XXXXXXXXX",
"XXXXXXXXX....      .............     ....XXXXXXXXX",
"XXXXXXXXX....      .............     ....XXXXXXXXX",
"XXXXXXXXX....      .............     ....XXXXXXXXX",
"XXXXXXXXX....           ....         ....XXXXXXXXX",
"XXXXXXXXX....           ....         ....XXXXXXXXX",
"XXXXXXXXX....           ....         ....XXXXXXXXX",
"XXXXXXXXX....           ....         ....XXXXXXXXX",
"XXXXXXXXX....           ....         ....XXXXXXXXX",
"XXXXXXXXX....           ....         ....XXXXXXXXX",
"XXXXXXXXX....           ....         ....XXXXXXXXX",
"XXXXXXXXX....           ....         ....XXXXXXXXX",
"XXXXXXXXX....                        ....XXXXXXXXX",
"XXXXXXXXX....                        ....XXXXXXXXX",
"XXXXXXXXX....                        ....XXXXXXXXX",
"XXXXXXXXX....                        ....XXXXXXXXX",
"XXXXXXXXX....                        ....XXXXXXXXX",
"XXXXXXXXX....                        ....XXXXXXXXX",
"XXXXXXXXX....           ....         ....XXXXXXXXX",
"XXXXXXXXX....           ....         ....XXXXXXXXX",
"XXXXXXXXX....           ....         ....XXXXXXXXX",
"XXXXXXXXX....           ....         ....XXXXXXXXX",
"XXXXXXXXX....           ....         ....XXXXXXXXX",
"XXXXXXXXX....                        ....XXXXXXXXX",
"XXXXXXXXX....                        ....XXXXXXXXX",
"XXXXXXXXX....                        ....XXXXXXXXX",
"XXXXXXXXX....                        ....XXXXXXXXX"
};
