/* XPM */
static char *result[] = {
/* columns rows colors chars-per-pixel */
"24 24 3 1 ",
"  c black",
". c #175EFE",
"X c None",
/* pixels */
"XXXXXXXXXXXXXXXXXXXXXXXX",
"XXXXXXXXXXXXXXXXXXXXXXXX",
"XXXXXXXXXXXXXXXXXXXXXXXX",
"XXXXXXXXXXXXXXXXXXXXXXXX",
"XXXXX....XXXXXX..XXXXXXX",
"XXXXX....XXXXXX..XXXXXXX",
"XXXXXXX....XXXX....XXXXX",
"XXXXXXX....XXXX....XXXXX",
"XXXXXXX............XXXXX",
"XXXXXXX............XXXXX",
"XXXXXXX....  ..  ..XXXXX",
"XXXXXXX....  ..  ..XXXXX",
"XXXXXXX....  ..  ..XXXXX",
"XXXXXXX....  ..  ..XXXXX",
"XXXXXXX..........XXXXXXX",
"XXXXXXX..........XXXXXXX",
"XXXXXXX....XX....XXXXXXX",
"XXXXXXX....XX....XXXXXXX",
"XXXXXXX..XXXX..XXXXXXXXX",
"XXXXXXX..XXXX..XXXXXXXXX",
"XXXXXXXXXXXXXXXXXXXXXXXX",
"XXXXXXXXXXXXXXXXXXXXXXXX",
"XXXXXXXXXXXXXXXXXXXXXXXX",
"XXXXXXXXXXXXXXXXXXXXXXXX"
};
